# xmcd CD database file
#
# Track frame offsets:
#	182
#	13530
#	24125
#	35827
#	48505
#	60325
#	75977
#	86180
#	97852
#	107992
#	121062
#	136960
#	152052
#	162567
#	179430
#	195627
#
# Disc length: 2772 seconds
#
# Revision: 0
# Processed by: cddbd v1.4PL0 Copyright (c) Steve Scherf et al.
# Submitted via: CdAid 2001.05.15.01
#
DISCID=c40ad210
DTITLE=Various Artist - Kings of the Blues
DYEAR=1900
DGENRE=
TTITLE0=Dust my broom/Elmore James
TTITLE1=I wish you would/Billy Joe Arnold
TTITLE2=San-Ho-Zay/Freddy King
TTITLE3=Open up Baby/George 'wild child' Butler
TTITLE4=My Back scratcher/Frank Frost
TTITLE5=Thug/Lowell Fulson
TTITLE6=The Crawl/Guitar Junior
TTITLE7=I Love you Honey/John Lee Hooker
TTITLE8=Honky Tonk/Jerry McCain
TTITLE9=Loose Me/Little Joe Blue
TTITLE10=Born under a bad sign/Albert King
TTITLE11=Hide Away/Shuggie Otis
TTITLE12=I ain't got you/Jimmy Reid
TTITLE13=Somebody loan me a dime/Fenton Robinson
TTITLE14=Part TIme Love/Little Johnny Taylor
TTITLE15=I need your love so Bad/Ted Taylor
EXTD=
EXTT0=
EXTT1=
EXTT2=
EXTT3=
EXTT4=
EXTT5=
EXTT6=
EXTT7=
EXTT8=
EXTT9=
EXTT10=
EXTT11=
EXTT12=
EXTT13=
EXTT14=
EXTT15=
PLAYORDER=
